HIERARCHY
ROOT Hips
{
	OFFSET 0.00000 0.00000 0.00000
	CHANNELS 6 Xposition Yposition Zposition Zrotation Yrotation Xrotation 
	JOINT LHipJoint
	{
		OFFSET 0 0 0
		CHANNELS 3 Zrotation Yrotation Xrotation
		JOINT LeftHip
		{
			OFFSET 1.34019 -1.87553 0.90315
			CHANNELS 3 Zrotation Yrotation Xrotation
			JOINT LeftKnee
			{
				OFFSET 2.55316 -7.01474 0.00000
				CHANNELS 3 Zrotation Yrotation Xrotation
				JOINT LeftAnkle
				{
					OFFSET 2.64657 -7.27139 0.00000
					CHANNELS 3 Zrotation Yrotation Xrotation
					JOINT LeftToe
					{
						OFFSET 0.24207 -0.66507 2.14489
						CHANNELS 3 Zrotation Yrotation Xrotation
						End Site
						{
							OFFSET 0.00000 -0.00000 1.12451
						}
					}
				}
			}
		}
	}
	JOINT RHipJoint
	{
		OFFSET 0 0 0
		CHANNELS 3 Zrotation Yrotation Xrotation
		JOINT RightHip
		{
			OFFSET -1.28320 -1.87553 0.90315
			CHANNELS 3 Zrotation Yrotation Xrotation
			JOINT RightKnee
			{
				OFFSET -2.60484 -7.15674 0.00000
				CHANNELS 3 Zrotation Yrotation Xrotation
				JOINT RightAnkle
				{
					OFFSET -2.60296 -7.15159 0.00000
					CHANNELS 3 Zrotation Yrotation Xrotation
					JOINT RightToe
					{
						OFFSET -0.31082 -0.85398 2.28998
						CHANNELS 3 Zrotation Yrotation Xrotation
						End Site
						{
							OFFSET -0.00000 -0.00000 1.21611
						}
					}
				}
			}
		}
	}
	JOINT lowerback
	{
		OFFSET 0 0 0
		CHANNELS 3 Zrotation Yrotation Xrotation
		JOINT Chest
		{
			OFFSET -0.00160 2.05581 -0.15156
			CHANNELS 3 Zrotation Yrotation Xrotation
			JOINT Chest2
			{
				OFFSET 0.04594 2.06326 -0.01617
				CHANNELS 3 Zrotation Yrotation Xrotation
				JOINT lowerneck
				{
					OFFSET 0 0 0
					CHANNELS 3 Zrotation Yrotation Xrotation
					JOINT Neck
					{
						OFFSET 0.03753 1.73883 0.26751
						CHANNELS 3 Zrotation Yrotation Xrotation
						JOINT Head
						{
							OFFSET -0.09795 1.76129 -0.31794
							CHANNELS 3 Zrotation Yrotation Xrotation
							End Site
							{
								OFFSET -0.03611 1.79987 -0.13846
							}
						}
					}
				}
				JOINT LeftCollar
				{
					OFFSET 0 0 0
					CHANNELS 3 Zrotation Yrotation Xrotation
					JOINT LeftShoulder
					{
						OFFSET 3.30667 1.29205 -0.22445
CHANNELS 3 Zrotation Xrotation Yrotation
						JOINT LeftElbow
						{
OFFSET 0 -4.927850 -0.000000
CHANNELS 3 Zrotation Xrotation Yrotation
							JOINT LeftWrist
							{
OFFSET 0 -3.440520 0.000000
CHANNELS 3 Zrotation Xrotation Yrotation
								JOINT lhand
								{
									OFFSET 0 0 0
CHANNELS 3 Zrotation Xrotation Yrotation
									JOINT LFingers
									{
OFFSET 0 -0.654330 0.000000
CHANNELS 3 Zrotation Xrotation Yrotation
										End Site
										{
OFFSET 0 -0.527530 0.000000
										}
									}
								}
								JOINT LThumb
								{
OFFSET 0 0.000000 0.000000
CHANNELS 3 Zrotation Xrotation Yrotation
									End Site
									{
OFFSET 0 -0.535590 0.535590
									}
								}
							}
						}
					}
				}
				JOINT RightCollar
				{
					OFFSET 0 0 0
					CHANNELS 3 Zrotation Yrotation Xrotation
					JOINT RightShoulder
					{
						OFFSET -3.20032 1.49783 -0.27688
CHANNELS 3 Zrotation Xrotation Yrotation
						JOINT RightElbow
						{
OFFSET 0 -5.091810 -0.000000
CHANNELS 3 Zrotation Xrotation Yrotation
							JOINT RightWrist
							{
OFFSET 0 -3.498650 -0.000000
CHANNELS 3 Zrotation Xrotation Yrotation
								JOINT rhand
								{
									OFFSET 0 0 0
CHANNELS 3 Zrotation Xrotation Yrotation
									JOINT RFingers
									{
OFFSET 0 -0.666410 0.000000
CHANNELS 3 Zrotation Xrotation Yrotation
										End Site
										{
OFFSET 0 -0.537280 0.000000
										}
									}
								}
								JOINT RThumb
								{
OFFSET 0 0.000000 0.000000
CHANNELS 3 Zrotation Xrotation Yrotation
									End Site
									{
OFFSET 0 -0.545480 0.545480
									}
								}
							}
						}
					}
				}
			}
		}
	}
}
MOTION
Frames: 10
Frame Time: 0.008333333333333333
0.350680 17.953952 -1.150118 -8.847326 8.820456 -2.386912 0.000000 0.000000 0.000000 -5.320454 -10.493593 -30.850918 2.632020 10.073491 29.215548 0.149708 3.799004 -9.713446 0.958394 -6.233803 -17.464423 0.000000 0.000000 0.000000 36.413102 -6.765982 5.128736 -0.381606 -3.967231 10.984594 0.395428 -14.882068 -16.099179 -0.003214 0.366807 -1.007885 6.010343 2.345316 3.956841 4.051054 3.521007 -0.226800 0.611888 1.709124 -2.351242 4.274166 -0.303269 -15.795283 -4.446808 -0.385306 23.708243 -2.342415 -0.299049 10.140383 0.000000 0.000000 0.000000 4.333306 12.528142 -31.392277 21.005939 -31.835251 6.053094 12.115676 -13.178858 -0.101588 0.000000 0.000000 0.000000 -7.125000 0.000000 0.000000 -11.346241 29.981237 -4.232817 0.000000 0.000000 0.000000 -6.476367 9.455295 24.409753 -23.013221 -34.103220 -7.145769 -15.986847 -9.545949 4.269246 0.000000 0.000000 0.000000 7.125000 0.000000 0.000000 8.768541 34.317377 2.321539
0.370188 17.944986 -1.020140 -8.842306 8.489843 -2.261918 0.000000 0.000000 0.000000 -5.468569 -11.042637 -30.015151 2.242819 9.354001 26.909421 0.146777 4.603331 -10.387278 0.960182 -6.239464 -17.480798 0.000000 0.000000 0.000000 36.326704 -6.870231 5.857076 -0.340494 -3.749461 10.372772 0.380137 -14.682057 -15.953890 -0.005212 0.465762 -1.279815 6.047680 2.576195 3.665789 3.930000 3.804627 -0.299126 0.464767 1.850537 -2.242763 4.073062 -0.325927 -15.651854 -4.376803 -0.368678 23.867527 -2.282869 -0.298229 10.172003 0.000000 0.000000 0.000000 4.358401 13.038039 -30.561224 21.053819 -31.891089 6.078377 12.315913 -13.136158 -0.114142 0.000000 0.000000 0.000000 -7.125000 0.000000 0.000000 -11.192117 29.996855 -4.169035 0.000000 0.000000 0.000000 -6.202152 8.984768 24.459024 -22.533469 -33.574571 -6.878545 -15.942362 -9.097987 4.236749 0.000000 0.000000 0.000000 7.125000 0.000000 0.000000 8.800784 34.282178 2.337808
0.391839 17.935723 -0.886703 -8.837570 8.217029 -2.064785 0.000000 0.000000 0.000000 -5.663945 -11.456153 -29.410835 1.945183 8.750819 25.019069 0.152246 5.214803 -11.090947 0.969061 -6.267407 -17.562267 0.000000 0.000000 0.000000 36.232167 -6.996342 6.535363 -0.298414 -3.512207 9.708237 0.366769 -14.481802 -15.780224 -0.007739 0.567150 -1.558542 6.088717 2.795031 3.372051 3.802380 4.075333 -0.420304 0.310856 1.983759 -2.181544 4.147834 -0.299322 -15.645095 -4.537405 -0.299490 24.137641 -2.349172 -0.275884 10.270651 0.000000 0.000000 0.000000 4.369446 13.523085 -29.751072 21.032052 -31.865806 6.066899 12.379347 -13.154249 -0.164837 0.000000 0.000000 0.000000 -7.125000 0.000000 0.000000 -11.148638 30.048799 -4.138206 0.000000 0.000000 0.000000 -5.887104 8.503038 24.445321 -22.070370 -33.056430 -6.624223 -15.971000 -8.797000 4.189290 0.000000 0.000000 0.000000 7.125000 0.000000 0.000000 8.771407 34.234628 2.340108
0.412604 17.922978 -0.750991 -8.890008 7.909002 -1.873307 0.000000 0.000000 0.000000 -5.766210 -11.777360 -28.948109 1.737293 8.295877 23.616478 0.163616 5.564237 -11.653666 0.949312 -6.204897 -17.380074 0.000000 0.000000 0.000000 36.217767 -7.062293 7.304235 -0.253198 -3.237273 8.940086 0.366151 -14.366796 -15.567558 -0.010694 0.666411 -1.831280 6.148241 3.017045 3.155014 3.697804 4.358963 -0.543355 0.167605 2.122313 -2.163954 4.270113 -0.262150 -15.671012 -4.676904 -0.236753 24.342650 -2.416216 -0.250565 10.352357 0.000000 0.000000 0.000000 4.373829 13.940859 -28.995716 20.933972 -31.751209 6.015166 12.493871 -13.242618 -0.134825 0.000000 0.000000 0.000000 -7.125000 0.000000 0.000000 -11.056081 30.020225 -4.110334 0.000000 0.000000 0.000000 -5.520787 8.123032 24.313847 -21.785565 -32.733794 -6.469556 -15.873270 -8.580874 4.198699 0.000000 0.000000 0.000000 7.125000 0.000000 0.000000 8.852296 34.240303 2.360937
0.436257 17.909459 -0.611117 -8.935566 7.655432 -1.692568 0.000000 0.000000 0.000000 -5.841627 -12.207547 -28.535907 1.611861 8.005890 22.732141 0.178241 5.736371 -12.087214 0.937463 -6.167182 -17.270405 0.000000 0.000000 0.000000 36.167165 -7.194212 8.095766 -0.210176 -2.951614 8.144101 0.360771 -14.227341 -15.385160 -0.013556 0.752882 -2.068989 6.201299 3.188616 2.998779 3.606389 4.578398 -0.629107 0.042989 2.229502 -2.144539 4.485671 -0.190596 -15.534203 -4.923213 -0.124674 24.239192 -2.522522 -0.207306 10.292804 0.000000 0.000000 0.000000 4.326890 14.307024 -28.185685 20.836083 -31.636567 5.963758 12.408706 -12.939894 -0.124874 0.000000 0.000000 0.000000 -7.125000 0.000000 0.000000 -11.121197 30.009055 -4.138343 0.000000 0.000000 0.000000 -5.163806 7.671684 24.184997 -21.558909 -32.475018 -6.347408 -15.874348 -8.351180 4.190658 0.000000 0.000000 0.000000 7.125000 0.000000 0.000000 8.850364 34.232083 2.362169
0.464079 17.887960 -0.467616 -8.982602 7.500202 -1.452797 0.000000 0.000000 0.000000 -5.859550 -12.813138 -28.303793 1.576836 7.922614 22.479304 0.202101 5.531536 -12.301694 0.970975 -6.273218 -17.579329 0.000000 0.000000 0.000000 36.108270 -7.257899 8.488278 -0.203236 -2.903077 8.009065 0.323718 -14.014908 -15.587153 -0.017020 0.842783 -2.316437 6.225637 3.311409 2.791915 3.559374 4.727153 -0.698914 -0.013040 2.303469 -2.088390 4.448611 -0.179496 -15.492749 -5.014771 -0.071411 24.246627 -2.541625 -0.196330 10.290146 0.000000 0.000000 0.000000 4.255915 14.623900 -27.629641 20.737136 -31.520235 5.911924 12.320160 -12.761066 -0.195652 0.000000 0.000000 0.000000 -7.125000 0.000000 0.000000 -11.198289 30.078799 -4.149076 0.000000 0.000000 0.000000 -4.884912 7.362052 24.200040 -21.565305 -32.482261 -6.350794 -16.047852 -8.515628 3.995052 0.000000 0.000000 0.000000 7.125000 0.000000 0.000000 8.684905 34.038078 2.358437
0.496303 17.867258 -0.320386 -9.072373 7.336634 -1.185437 0.000000 0.000000 0.000000 -5.818650 -13.363242 -28.114748 1.589101 7.951861 22.567984 0.233423 4.930659 -12.280092 0.990803 -6.335169 -17.760006 0.000000 0.000000 0.000000 36.045174 -7.284181 8.849021 -0.199278 -2.874403 7.929333 0.291998 -13.805318 -15.708443 -0.024941 1.019658 -2.802950 6.337797 3.445816 2.658873 3.511756 4.904261 -0.812091 -0.124174 2.387670 -2.109904 4.375543 -0.207241 -15.417432 -5.033167 -0.084180 24.173606 -2.534903 -0.210541 10.248473 0.000000 0.000000 0.000000 4.233720 14.922351 -27.245928 20.567447 -31.319984 5.823473 12.246474 -12.580613 -0.199289 0.000000 0.000000 0.000000 -7.125000 0.000000 0.000000 -11.255986 30.081349 -4.170520 0.000000 0.000000 0.000000 -4.615675 7.174768 24.184140 -21.635168 -32.562169 -6.388364 -16.042429 -8.503069 3.995532 0.000000 0.000000 0.000000 7.125000 0.000000 0.000000 8.689251 34.038392 2.359540
0.534397 17.851514 -0.163713 -9.273383 6.977686 -0.937234 0.000000 0.000000 0.000000 -5.616067 -13.796977 -27.703110 1.595401 7.966986 22.613834 0.264596 4.354336 -12.311916 1.019749 -6.424331 -18.020714 0.000000 0.000000 0.000000 36.037154 -7.227088 9.545302 -0.174190 -2.688210 7.411859 0.273298 -13.538494 -15.523204 -0.034324 1.195301 -3.286369 6.576423 3.619826 2.574053 3.506143 5.142064 -0.903540 -0.264959 2.500774 -2.125478 4.392861 -0.188183 -15.430218 -5.101372 -0.047518 24.065330 -2.555103 -0.200857 10.213577 0.000000 0.000000 0.000000 4.200653 15.223824 -26.889299 20.441350 -31.170463 5.758040 12.153353 -12.392639 -0.211670 0.000000 0.000000 0.000000 -7.125000 0.000000 0.000000 -11.329883 30.092262 -4.195843 0.000000 0.000000 0.000000 -4.406246 7.065183 24.295616 -21.751598 -32.695146 -6.451177 -15.959740 -8.511662 4.085081 0.000000 0.000000 0.000000 7.125000 0.000000 0.000000 8.767751 34.127111 2.362241
0.579575 17.838216 0.008214 -9.395017 6.565955 -0.612264 0.000000 0.000000 0.000000 -5.481234 -14.309082 -27.121916 1.594326 7.964382 22.605911 0.284942 4.286445 -12.588096 1.024663 -6.439388 -18.064667 0.000000 0.000000 0.000000 35.960999 -7.107408 10.277432 -0.149357 -2.490538 6.863331 0.265474 -13.382712 -15.366582 -0.046525 1.391603 -3.826951 6.715581 3.798801 2.366232 3.510874 5.368261 -0.955353 -0.328870 2.613128 -2.039355 4.576828 -0.117300 -15.409894 -5.331271 0.050844 23.685343 -2.646726 -0.167837 10.077525 0.000000 0.000000 0.000000 4.071382 15.383708 -26.457459 20.252376 -30.945199 5.660585 12.067641 -12.321744 0.032631 0.000000 0.000000 0.000000 -7.125000 0.000000 0.000000 -11.367973 29.845966 -4.278682 0.000000 0.000000 0.000000 -4.310826 6.953053 24.542640 -21.863725 -32.822676 -6.511835 -15.886767 -8.628076 3.956248 0.000000 0.000000 0.000000 7.125000 0.000000 0.000000 8.811037 33.991935 2.403353
0.627597 17.829265 0.192898 -9.381538 6.251507 -0.155144 0.000000 0.000000 0.000000 -5.533920 -14.737394 -26.695940 1.596879 7.970356 22.624132 0.272199 4.691103 -12.711397 1.022683 -6.433248 -18.046907 0.000000 0.000000 0.000000 35.771799 -7.094074 11.127365 -0.109077 -2.128884 5.861995 0.283983 -13.359619 -15.018175 -0.065086 1.645426 -4.526756 6.691831 3.956784 2.090412 3.456841 5.564103 -1.159206 -0.363686 2.706426 -2.082462 4.297907 -0.182249 -15.346000 -5.066695 -0.026671 23.827320 -2.517684 -0.196263 10.113052 0.000000 0.000000 0.000000 3.988297 15.886453 -26.059326 20.190667 -30.871341 5.628793 11.965078 -12.175626 0.177170 0.000000 0.000000 0.000000 -7.125000 0.000000 0.000000 -11.430892 29.699667 -4.343972 0.000000 0.000000 0.000000 -4.218930 7.099178 24.828353 -21.942998 -32.912541 -6.554817 -15.870205 -8.767756 3.770848 0.000000 0.000000 0.000000 7.125000 0.000000 0.000000 8.801833 33.800913 2.441968
